<mxfile host="app.diagrams.net" modified="2025-09-30T10:15:06.286142" agent="Python" version="24.7.10">
  <diagram id="diag1" name="Implementation & Migration">
    <mxGraphModel>
      <root>
        <mxCell id="0" />
        <mxCell id="1" parent="0" />
<mxCell id="wp1" value="Work Package\nMVP" style="rounded=1;whiteSpace=wrap;html=1;fillColor=#E9D5FF;strokeColor=#1C1C1E;fontSize=12;" vertex="1" parent="1" x="60" y="40" w="140" h="60" />
<mxCell id="wp2" value="Work Package\nHardening" style="rounded=1;whiteSpace=wrap;html=1;fillColor=#E9D5FF;strokeColor=#1C1C1E;fontSize=12;" vertex="1" parent="1" x="240" y="40" w="160" h="60" />
<mxCell id="wp3" value="Work Package\nPiloto" style="rounded=1;whiteSpace=wrap;html=1;fillColor=#E9D5FF;strokeColor=#1C1C1E;fontSize=12;" vertex="1" parent="1" x="440" y="40" w="140" h="60" />
<mxCell id="wp4" value="Work Package\nGA" style="rounded=1;whiteSpace=wrap;html=1;fillColor=#E9D5FF;strokeColor=#1C1C1E;fontSize=12;" vertex="1" parent="1" x="620" y="40" w="140" h="60" />
<mxCell id="plat1" value="Plateau\nToBe_MVP" style="rounded=1;whiteSpace=wrap;html=1;fillColor=#E9D5FF;strokeColor=#1C1C1E;fontSize=12;" vertex="1" parent="1" x="240" y="140" w="160" h="60" />
<mxCell id="plat2" value="Plateau\nToBe_GA" style="rounded=1;whiteSpace=wrap;html=1;fillColor=#E9D5FF;strokeColor=#1C1C1E;fontSize=12;" vertex="1" parent="1" x="620" y="140" w="140" h="60" />
<mxCell id="gap1" value="Gap\nPE/VNET em todos" style="rounded=1;whiteSpace=wrap;html=1;fillColor=#E9D5FF;strokeColor=#1C1C1E;fontSize=12;" vertex="1" parent="1" x="240" y="220" w="160" h="60" />
<mxCell id="gap2" value="Gap\nDR Georredundante" style="rounded=1;whiteSpace=wrap;html=1;fillColor=#E9D5FF;strokeColor=#1C1C1E;fontSize=12;" vertex="1" parent="1" x="620" y="220" w="160" h="60" />
<mxCell id="i1" source="wp1" target="wp2" style="edgeStyle=orthogonalEdgeStyle;rounded=0;orthogonalLoop=1;jettySize=auto;html=1;" edge="1" parent="1" />
<mxCell id="i2" source="wp2" target="wp3" style="edgeStyle=orthogonalEdgeStyle;rounded=0;orthogonalLoop=1;jettySize=auto;html=1;" edge="1" parent="1" />
<mxCell id="i3" source="wp3" target="wp4" style="edgeStyle=orthogonalEdgeStyle;rounded=0;orthogonalLoop=1;jettySize=auto;html=1;" edge="1" parent="1" />
<mxCell id="i4" source="wp2" target="plat1" style="edgeStyle=orthogonalEdgeStyle;rounded=0;orthogonalLoop=1;jettySize=auto;html=1;" edge="1" parent="1" />
<mxCell id="i5" source="wp4" target="plat2" style="edgeStyle=orthogonalEdgeStyle;rounded=0;orthogonalLoop=1;jettySize=auto;html=1;" edge="1" parent="1" />
<mxCell id="i6" source="plat1" target="gap1" style="edgeStyle=orthogonalEdgeStyle;rounded=0;orthogonalLoop=1;jettySize=auto;html=1;" edge="1" parent="1" />
<mxCell id="i7" source="plat2" target="gap2" style="edgeStyle=orthogonalEdgeStyle;rounded=0;orthogonalLoop=1;jettySize=auto;html=1;" edge="1" parent="1" />
      </root>
    </mxGraphModel>
  </diagram>
</mxfile>